<svg width="40" height="40" viewBox="0 0 40 40" fill="none" xmlns="http://www.w3.org/2000/svg">
<g id="maki:arrow">
<path id="Vector" d="M22.1146 6.11466C22.6147 5.61473 23.2929 5.33389 24 5.33389C24.7071 5.33389 25.3852 5.61473 25.8853 6.11466L37.8853 18.1147C38.3852 18.6147 38.6661 19.2929 38.6661 20C38.6661 20.7071 38.3852 21.3853 37.8853 21.8853L25.8853 33.8853C25.3824 34.3711 24.7088 34.6399 24.0096 34.6338C23.3104 34.6277 22.6416 34.3473 22.1471 33.8528C21.6527 33.3584 21.3723 32.6896 21.3662 31.9904C21.3601 31.2912 21.6289 30.6176 22.1146 30.1147L29.3333 22.6667H3.99998C3.29274 22.6667 2.61446 22.3857 2.11436 21.8856C1.61426 21.3855 1.33331 20.7072 1.33331 20C1.33331 19.2927 1.61426 18.6145 2.11436 18.1144C2.61446 17.6143 3.29274 17.3333 3.99998 17.3333H29.3333L22.1146 9.88532C21.6147 9.38525 21.3339 8.70709 21.3339 7.99999C21.3339 7.29289 21.6147 6.61473 22.1146 6.11466Z" fill="#F8F8F8"/>
</g>
</svg>
